<svg xmlns="http://www.w3.org/2000/svg" width="48px" height="48px" viewBox="0 0 1024 1024" data-aut-id="icon" class="" fill-rule="evenodd"><path class="rui-4K4Y7" d="M927.74 266.064C908.72 274.497 888.977 281.151 868.718 285.968C891.041 264.755 907.825 238.222 917.294 208.607V208.607C919.997 200.152 910.814 192.841 903.179 197.368V197.368C874.995 214.085 844.637 226.626 812.945 234.647C811.106 235.112 809.209 235.348 807.306 235.348C801.533 235.348 795.921 233.205 791.506 229.315C757.788 199.597 714.421 183.23 669.396 183.23C649.914 183.23 630.243 186.267 610.929 192.257C551.089 210.817 504.917 260.178 490.43 321.079C484.996 343.922 483.524 366.785 486.054 389.034C486.344 391.59 485.135 393.375 484.39 394.212C483.082 395.679 481.226 396.52 479.3 396.52C479.085 396.52 478.864 396.509 478.645 396.489C347.656 384.319 229.536 321.212 146.043 218.796V218.796C141.786 213.572 133.621 214.212 130.228 220.033V220.033C113.877 248.084 105.237 280.166 105.237 312.812C105.237 362.843 125.338 409.992 160.252 444.364C145.57 440.883 131.359 435.4 118.158 428.068V428.068C111.772 424.52 103.914 429.08 103.824 436.385V436.385C102.91 510.71 146.425 576.845 211.613 606.625C210.3 606.656 208.987 606.671 207.672 606.671C197.339 606.671 186.877 605.673 176.579 603.705V603.705C169.387 602.332 163.345 609.154 165.578 616.127V616.127C186.737 682.185 243.614 730.876 311.677 741.932C255.189 779.852 189.406 799.854 120.94 799.854L99.5957 799.841C93.0193 799.841 87.4573 804.128 85.7814 810.498C84.1305 816.772 87.1713 823.39 92.7793 826.652C169.93 871.551 257.931 895.281 347.308 895.281C425.541 895.281 498.722 879.755 564.82 849.138C625.413 821.069 678.959 780.945 723.969 729.881C765.898 682.312 798.686 627.4 821.418 566.67C843.088 508.781 854.542 447.012 854.542 388.04V385.231C854.54 375.762 858.823 366.852 866.294 360.787C894.647 337.767 919.337 310.668 939.676 280.245V280.245C945.046 272.212 936.576 262.144 927.74 266.064V266.064Z"/></svg>